<svg version="1.1" viewBox="0.0 0.0 456.0 356.0" fill="none" stroke="none" stroke-linecap="square" stroke-miterlimit="10" xmlns:xlink="http://www.w3.org/1999/xlink" xmlns="http://www.w3.org/2000/svg"><clipPath id="p.0"><path d="m0 0l456.0 0l0 356.0l-456.0 0l0 -356.0z" clip-rule="nonzero"/></clipPath><g clip-path="url(#p.0)"><path fill="#000000" fill-opacity="0.0" d="m0 0l456.0 0l0 356.0l-456.0 0z" fill-rule="evenodd"/><path fill="#ffffff" d="m14.582677 65.4237c0 -31.08802 25.20182 -56.28984 56.289845 -56.28984l314.25494 0c14.929016 0 29.246552 5.930519 39.802948 16.486912c10.5563965 10.556391 16.486908 24.873934 16.486908 39.802925l0 225.15259c0 31.088043 -25.201813 56.289856 -56.289856 56.289856l-314.25494 0c-31.088024 0 -56.289845 -25.201813 -56.289845 -56.289856z" fill-rule="evenodd"/><path stroke="#000000" stroke-width="1.0" stroke-linejoin="round" stroke-linecap="butt" d="m14.582677 65.4237c0 -31.08802 25.20182 -56.28984 56.289845 -56.28984l314.25494 0c14.929016 0 29.246552 5.930519 39.802948 16.486912c10.5563965 10.556391 16.486908 24.873934 16.486908 39.802925l0 225.15259c0 31.088043 -25.201813 56.289856 -56.289856 56.289856l-314.25494 0c-31.088024 0 -56.289845 -25.201813 -56.289845 -56.289856z" fill-rule="evenodd"/><path fill="#434343" d="m51.32546 50.438473c0 -4.2473145 3.4431305 -7.690441 7.690445 -7.690441l339.54825 0c2.0396423 0 3.9957275 0.8102417 5.437958 2.2524796c1.4422607 1.4422379 2.2525024 3.3983307 2.2525024 5.4379616l0 30.760845c0 4.2473145 -3.4431458 7.690445 -7.69046 7.690445l-339.54825 0c-4.2473145 0 -7.690445 -3.4431305 -7.690445 -7.690445z" fill-rule="evenodd"/><path stroke="#000000" stroke-width="1.0" stroke-linejoin="round" stroke-linecap="butt" d="m51.32546 50.438473c0 -4.2473145 3.4431305 -7.690441 7.690445 -7.690441l339.54825 0c2.0396423 0 3.9957275 0.8102417 5.437958 2.2524796c1.4422607 1.4422379 2.2525024 3.3983307 2.2525024 5.4379616l0 30.760845c0 4.2473145 -3.4431458 7.690445 -7.69046 7.690445l-339.54825 0c-4.2473145 0 -7.690445 -3.4431305 -7.690445 -7.690445z" fill-rule="evenodd"/><path fill="#434343" d="m52.102364 162.61958c0 -4.2473145 3.4431267 -7.690445 7.690441 -7.690445l339.54825 0c2.0396118 0 3.9957275 0.8102417 5.437958 2.252472c1.4422302 1.4422455 2.252472 3.3983307 2.252472 5.437973l0 30.760834c0 4.2473145 -3.4431152 7.690445 -7.6904297 7.690445l-339.54825 0c-4.2473145 0 -7.690441 -3.4431305 -7.690441 -7.690445z" fill-rule="evenodd"/><path stroke="#000000" stroke-width="1.0" stroke-linejoin="round" stroke-linecap="butt" d="m52.102364 162.61958c0 -4.2473145 3.4431267 -7.690445 7.690441 -7.690445l339.54825 0c2.0396118 0 3.9957275 0.8102417 5.437958 2.252472c1.4422302 1.4422455 2.252472 3.3983307 2.252472 5.437973l0 30.760834c0 4.2473145 -3.4431152 7.690445 -7.6904297 7.690445l-339.54825 0c-4.2473145 0 -7.690441 -3.4431305 -7.690441 -7.690445z" fill-rule="evenodd"/><path fill="#434343" d="m52.102364 274.8007c0 -4.2473145 3.4431267 -7.69046 7.690441 -7.69046l339.54825 0c2.0396118 0 3.9957275 0.8102417 5.437958 2.252472c1.4422302 1.4422607 2.252472 3.398346 2.252472 5.4379883l0 30.760834c0 4.2473145 -3.4431152 7.69046 -7.6904297 7.69046l-339.54825 0c-4.2473145 0 -7.690441 -3.4431458 -7.690441 -7.69046z" fill-rule="evenodd"/><path stroke="#000000" stroke-width="1.0" stroke-linejoin="round" stroke-linecap="butt" d="m52.102364 274.8007c0 -4.2473145 3.4431267 -7.69046 7.690441 -7.69046l339.54825 0c2.0396118 0 3.9957275 0.8102417 5.437958 2.252472c1.4422302 1.4422607 2.252472 3.398346 2.252472 5.4379883l0 30.760834c0 4.2473145 -3.4431152 7.69046 -7.6904297 7.69046l-339.54825 0c-4.2473145 0 -7.690441 -3.4431458 -7.690441 -7.69046z" fill-rule="evenodd"/></g></svg>